<?xml version="1.0" encoding="iso-8859-1"?>
<!-- Generator: Adobe Illustrator 19.0.0, SVG Export Plug-In . SVG Version: 6.00 Build 0)  -->
<svg version="1.1" id="Layer_1" xmlns="http://www.w3.org/2000/svg" xmlns:xlink="http://www.w3.org/1999/xlink" x="0px" y="0px"
	 viewBox="0 0 512.002 512.002" style="enable-background:new 0 0 512.002 512.002;" xml:space="preserve">
<path style="fill:#EFF2FA;" d="M472.996,355.653l-432.845,0.814c-8.854,0.017-16.044-7.147-16.061-16.001L23.546,51.902
	l464.908-0.874l0.542,288.563C489.013,348.445,481.849,355.636,472.996,355.653z"/>
<rect x="112.145" y="244.065" transform="matrix(-1 0.0019 -0.0019 -1 272.9082 551.9969)" style="fill:#00D2FF;" width="48.094" height="64.125"/>
<rect x="192.231" y="171.772" transform="matrix(-1 0.0019 -0.0019 -1 433.011 479.3994)" style="fill:#FF6464;" width="48.094" height="136.267"/>
<rect x="272.428" y="211.699" transform="matrix(-1 0.0019 -0.0019 -1 593.4437 519.0226)" style="fill:#FFD782;" width="48.094" height="96.188"/>
<rect x="352.484" y="99.327" transform="matrix(-1 0.0019 -0.0019 -1 753.4484 406.347)" style="fill:#78D2BE;" width="48.094" height="208.408"/>
<path d="M504.485,43.482c-0.004,0-0.01,0-0.014,0l-240.97,0.453l-0.046-24.547c-0.008-4.146-3.371-7.501-7.514-7.501
	c-0.005,0-0.01,0-0.015,0c-4.15,0.008-7.509,3.379-7.501,7.529l0.046,24.548l-224.94,0.423c-0.001,0-0.003,0-0.004,0l-16.027,0.03
	C3.351,44.424-0.008,47.796,0,51.945c0.008,4.146,3.371,7.501,7.515,7.501c0.005,0,0.01,0,0.015,0l8.517-0.016l0.528,281.049
	c0.024,12.959,10.587,23.502,23.545,23.502c0.005,0,0.04,0,0.045,0l123.288-0.231l-16.134,35.13
	c-1.381,1.299-2.266,3.11-2.357,5.132l-39.244,85.45c-1.732,3.771-0.079,8.233,3.693,9.964c1.016,0.467,2.082,0.688,3.131,0.688
	c2.846,0,5.569-1.625,6.833-4.381l38.522-83.879l197.558-0.371l38.838,83.734c1.272,2.741,3.987,4.355,6.822,4.355
	c1.058,0,2.133-0.225,3.157-0.699c3.765-1.746,5.402-6.214,3.655-9.978l-39.565-85.302c-0.098-2.022-0.99-3.831-2.377-5.124
	l-16.266-35.069l123.289-0.231c6.289-0.012,12.197-2.472,16.637-6.928c4.439-4.456,6.876-10.373,6.865-16.662l-0.528-281.049
	l8.517-0.016c4.15-0.008,7.509-3.379,7.501-7.529C511.992,46.838,508.629,43.482,504.485,43.482z M348.491,396.467l-183.685,0.345
	l15.199-33.093l153.163-0.289L348.491,396.467z M481.482,339.605c0.004,2.275-0.878,4.415-2.483,6.027
	c-1.606,1.611-3.742,2.502-6.018,2.506l-432.846,0.815l-0.017,7.515v-7.515c-4.687,0-8.507-3.813-8.516-8.5L31.075,59.404
	l224.916-0.423c0.003,0,0.006,0,0.009,0c0.005,0,0.01,0,0.015,0c0.003,0,0.006,0,0.01,0l0.42-0.001l224.511-0.422L481.482,339.605z"
	/>
<path d="M264.985,300.435l-17.033,0.032l-0.046-24.545c0-0.002,0-0.004,0-0.004l-0.075-40.073c0-0.003,0-0.006,0-0.006
	l-0.075-40.071c0-0.004,0-0.007,0-0.007l-0.045-24.045c-0.004-1.993-0.799-3.904-2.211-5.31c-1.409-1.403-3.316-2.191-5.303-2.191
	c-0.004,0-0.01,0-0.014,0l-16.021,0.03c-0.007,0-0.014,0-0.02,0l-32.052,0.061c-4.15,0.008-7.509,3.379-7.501,7.529l0.06,32.063
	v0.001l0.181,96.687l-17.033,0.032l-0.106-56.61c-0.008-4.146-3.371-7.501-7.515-7.501c-0.005,0-0.01,0-0.015,0l-48.094,0.09
	c-1.993,0.004-3.903,0.8-5.309,2.211c-1.407,1.412-2.195,3.324-2.191,5.317l0.106,56.611l-25.049,0.047L79.245,99.892
	c-0.008-4.146-3.371-7.501-7.515-7.501c-0.005,0-0.01,0-0.015,0c-4.15,0.008-7.509,3.379-7.501,7.529l0.392,208.406
	c0,0.26,0.014,0.515,0.04,0.768c0.391,3.784,3.589,6.733,7.474,6.733c0.005,0,0.01,0,0.015,0l46.074-0.086l42.098-0.079
	c0.002,0,0.004,0,0.006,0l48.062-0.09c0.004,0,0.008,0,0.012,0s0.009,0,0.013,0l1.956-0.004l30.108-0.056c0.001,0,0.003,0,0.004,0
	l62.036-0.116l18.116-0.034c0.001,0,0.002,0,0.003,0l48.068-0.09c0.003,0,0.006,0,0.009,0c0.003,0,0.006,0,0.01,0l26.072-0.049
	l5.996-0.011h0.001l40.077-0.075c4.15-0.008,7.509-3.379,7.501-7.529c-0.008-4.146-3.371-7.501-7.515-7.501c-0.005,0-0.01,0-0.015,0
	l-32.564,0.061l-0.046-24.547v-0.002l-0.331-176.345c-0.004-1.993-0.799-3.904-2.211-5.31c-1.409-1.403-3.316-2.191-5.303-2.191
	c-0.005,0-0.009,0-0.014,0l-48.094,0.091c-4.15,0.008-7.509,3.379-7.501,7.529l0.045,24.045v0.004l0.075,40.075v0.003l0.075,40.076
	l0,0l0.181,96.688l-17.033,0.032l-0.167-88.672c-0.004-1.993-0.799-3.904-2.211-5.31c-1.409-1.403-3.316-2.191-5.303-2.191
	c-0.005,0-0.01,0-0.014,0l-48.094,0.091c-4.15,0.008-7.509,3.379-7.501,7.529L264.985,300.435z M199.758,247.058l33.003-33.127
	l0.035,18.824l-33.003,33.127L199.758,247.058z M232.922,300.495l-6.406,0.012l6.393-6.418L232.922,300.495z M232.719,192.678
	l-33.003,33.127l-0.035-18.823l27.608-27.712l5.405-0.01L232.719,192.678z M206.036,179.308l-6.394,6.419l-0.012-6.407
	L206.036,179.308z M199.833,287.137l33.003-33.127l0.035,18.824l-27.608,27.712l-5.405,0.01L199.833,287.137z M119.609,251.612
	l33.065-0.063l0.092,49.096l-8.079,0.015l-24.987,0.047L119.609,251.612z M359.92,166.601l33.003-33.128l0.035,18.825
	l-33.003,33.128L359.92,166.601z M359.995,206.68l33.003-33.128l0.035,18.825l-33.003,33.128L359.995,206.68z M360.07,246.758
	l33.003-33.128l0.035,18.825l-33.003,33.127L360.07,246.758z M393.235,300.193l-6.406,0.012l6.394-6.418L393.235,300.193z
	 M392.882,112.22l-33.003,33.128l-0.035-18.824l19.608-19.681l13.42-0.025L392.882,112.22z M360.145,286.836l33.003-33.127
	l0.035,18.824l-27.608,27.712l-5.405,0.01L360.145,286.836z M312.926,219.186l0.152,81.158l-19.31,0.037l-13.755,0.026
	l-0.152-81.159L312.926,219.186z"/>
<g>
</g>
<g>
</g>
<g>
</g>
<g>
</g>
<g>
</g>
<g>
</g>
<g>
</g>
<g>
</g>
<g>
</g>
<g>
</g>
<g>
</g>
<g>
</g>
<g>
</g>
<g>
</g>
<g>
</g>
</svg>
