<?xml version="1.0" encoding="iso-8859-1"?>
<!-- Generator: Adobe Illustrator 19.0.0, SVG Export Plug-In . SVG Version: 6.00 Build 0)  -->
<svg version="1.1" id="Layer_1" xmlns="http://www.w3.org/2000/svg" xmlns:xlink="http://www.w3.org/1999/xlink" x="0px" y="0px"
	 viewBox="0 0 512.005 512.005" style="enable-background:new 0 0 512.005 512.005;" xml:space="preserve">
<path style="fill:#D7DEED;" d="M488.459,131.047l0.332,176.309c0.017,8.815-7.183,16.042-15.998,16.058l-272.477,0.512
	c-8.815,0.017-18.952-6.564-22.525-14.622L85.039,136.42"/>
<g>
	<circle style="fill:#5B5D6E;" cx="152.397" cy="412.174" r="24.042"/>
	<circle style="fill:#5B5D6E;" cx="464.944" cy="411.583" r="24.042"/>
</g>
<path d="M504.487,123.504c-0.005,0-0.01,0-0.015,0L91.765,124.28l-14.85-29.087C73.016,86.314,64.91,68.28,39.653,68.28
	c-0.033,0-0.065,0-0.098,0L7.499,68.341C3.35,68.348-0.008,71.718,0,75.867c0.008,4.145,3.37,7.499,7.513,7.499
	c0.005,0,0.01,0,0.015,0l32.055-0.061c0.026,0,0.05,0,0.076,0c13.134,0,18.427,6.375,23.585,18.129
	c0.059,0.134,0.122,0.266,0.188,0.397l57.509,112.643c0.212,0.573,0.486,1.117,0.824,1.615l49.249,96.464
	c4.101,9.029,13.975,16.343,24.002,18.332l-32.569,51.393c-3.176-1.072-6.573-1.663-10.109-1.663
	c-17.399,0.033-31.528,14.215-31.495,31.614c0.033,17.367,14.188,31.496,31.555,31.496c0.005,0,0.055,0,0.06,0
	c14.858-0.028,27.323-10.377,30.63-24.232c0.444,0.082,0.9,0.13,1.366,0.13c0.005,0,0.01,0,0.015,0l249.847-0.469
	c3.404,13.751,15.85,23.984,30.628,23.984c0.004,0,0.056,0,0.061,0c8.429-0.016,16.347-3.313,22.296-9.284
	c5.949-5.971,9.216-13.901,9.2-22.33c-0.033-17.367-14.188-31.495-31.614-31.495c-8.429,0.016-16.347,3.313-22.296,9.284
	c-4.138,4.154-6.975,9.257-8.316,14.816l-249.834,0.469c-0.473,0.001-0.934,0.051-1.382,0.135c-1.336-5.501-4.12-10.44-7.926-14.397
	l37.337-58.918l260.339-0.49c12.981-0.024,23.521-10.605,23.497-23.585l-0.06-32.052c0-0.001,0-0.002,0-0.002v-0.004l-0.09-48.08
	v-0.002V227.2l-0.09-48.081v-0.001v-0.001l-0.076-40.571l8.515-0.016c4.149-0.008,7.507-3.378,7.499-7.527
	C511.992,126.859,508.63,123.504,504.487,123.504z M453.234,399.917c3.115-3.127,7.263-4.855,11.712-4.862
	c9.096,0,16.51,7.401,16.527,16.497c0.008,4.416-1.703,8.57-4.819,11.697c-3.116,3.128-7.263,4.855-11.678,4.863l-0.033,7.513
	v-7.513c-9.097,0-16.51-7.401-16.528-16.497C448.407,407.199,450.119,403.045,453.234,399.917z M135.489,209.923l-0.042-22.616
	l25.044-0.047l0.062,33.058l-19.738,0.037L135.489,209.923z M215.586,187.157l25.044-0.047l0.062,33.058l-25.044,0.047
	L215.586,187.157z M200.622,220.243l-25.044,0.047l-0.062-33.058l25.044-0.047L200.622,220.243z M255.656,187.082l25.044-0.047
	l0.062,33.058l-25.044,0.047L255.656,187.082z M320.832,220.018l-25.044,0.047l-0.062-33.058l25.044-0.047L320.832,220.018z
	 M335.797,186.932l25.044-0.047l0.062,33.058l-25.044,0.047L335.797,186.932z M280.79,235.119l0.062,33.058l-25.044,0.047
	l-0.062-33.058L280.79,235.119z M295.817,235.091l25.044-0.047l0.062,33.058l-25.044,0.047L295.817,235.091z M335.887,235.016
	l25.044-0.047l0.062,33.058l-25.044,0.047L335.887,235.016z M375.957,234.941l25.044-0.047l0.062,33.058l-25.044,0.047
	L375.957,234.941z M375.929,219.914l-0.062-33.058l25.044-0.047l0.062,33.058L375.929,219.914z M375.839,171.83l-0.062-33.058
	l25.044-0.047l0.062,33.058L375.839,171.83z M360.812,171.858l-25.044,0.047l-0.062-33.058l25.044-0.047L360.812,171.858z
	 M320.742,171.933l-25.044,0.047l-0.062-33.058l25.044-0.047L320.742,171.933z M280.672,172.009l-25.044,0.047l-0.062-33.058
	l25.044-0.047L280.672,172.009z M240.602,172.085l-25.044,0.047l-0.062-33.058l25.044-0.047L240.602,172.085z M200.532,172.159
	l-25.044,0.047l-0.062-33.058l25.044-0.047L200.532,172.159z M160.462,172.235l-25.044,0.047l-0.062-33.057l25.044-0.047
	L160.462,172.235z M160.58,235.345l0.045,23.813l-12.146-23.791L160.58,235.345z M175.606,235.317l25.044-0.047l0.062,33.058
	l-25.044,0.047L175.606,235.317z M215.676,235.241l25.044-0.047l0.062,33.058l-25.044,0.047L215.676,235.241z M240.81,283.279
	l0.062,33.058l-25.044,0.047l-0.062-33.058L240.81,283.279z M255.837,283.25l25.044-0.047l0.062,33.058l-25.044,0.047
	L255.837,283.25z M295.907,283.175l25.044-0.047l0.062,33.058l-25.044,0.047L295.907,283.175z M335.977,283.1l25.044-0.047
	l0.062,33.058l-25.044,0.047L335.977,283.1z M376.047,283.025l25.044-0.047l0.062,33.058l-25.044,0.047L376.047,283.025z
	 M416.117,282.95l25.044-0.047l0.062,33.057l-25.044,0.047L416.117,282.95z M416.089,267.923l-0.062-33.058l25.044-0.047
	l0.062,33.058L416.089,267.923z M456.097,234.79l25.044-0.047l0.062,33.058l-25.044,0.047L456.097,234.79z M481.113,219.717
	l-25.044,0.047l-0.062-33.058l25.044-0.047L481.113,219.717z M441.043,219.792l-25.044,0.047l-0.062-33.058l25.044-0.047
	L441.043,219.792z M415.909,171.755l-0.062-33.058l25.044-0.047l0.062,33.058L415.909,171.755z M120.33,139.253l0.062,33.057
	l-4.102,0.008l-16.861-33.026L120.33,139.253z M184.659,306.258c-0.056-0.125-0.114-0.248-0.177-0.371l-8.775-17.189l-0.01-5.298
	l25.044-0.047l0.062,33.058l-0.501,0.001c-0.007,0-0.013,0-0.02,0C194.459,316.413,187.017,311.579,184.659,306.258z M152.43,428.7
	l-0.032,7.513V428.7c-9.097,0-16.511-7.401-16.529-16.498c-0.017-9.114,7.384-16.543,16.529-16.56
	c9.097,0,16.511,7.401,16.529,16.498C168.944,421.253,161.543,428.682,152.43,428.7z M472.778,315.9l-16.529,0.031l-0.062-33.057
	l25.044-0.047l0.046,24.542C481.286,312.065,477.474,315.891,472.778,315.9z M481.022,171.633l-25.044,0.047l-0.062-33.058
	l25.044-0.047L481.022,171.633z"/>
<g>
</g>
<g>
</g>
<g>
</g>
<g>
</g>
<g>
</g>
<g>
</g>
<g>
</g>
<g>
</g>
<g>
</g>
<g>
</g>
<g>
</g>
<g>
</g>
<g>
</g>
<g>
</g>
<g>
</g>
</svg>
